PathFileType	4	(X/Y/Z)	Walk2.trc
DataRate	CameraRate	NumFrames	NumMarkers	Units	OrigDataRate	OrigDataStartFrame	OrigNumFrames
200.000000	200.000000	4	59	mm	200.000000	415	485
Frame#	Times		LBHD		C7		T10		RBack		LPSI		RPSI		RCAR		LElbowM		LMT1		LLFC		RWRR		LFHD		LUA1		RUA1		RFA1		CLAV		LCAR		RFHD		RElbowM		LWRU		LACR1		RBHD		RACR1		RTH3		LFA1		RWRU		RTH4		RTH2		RTB1		RTB4		RCAL		RToe		RTB3		RLFC		RMT1		RMT5		LWRR		RElbow		RTB2		LTH4		RTH1		LTH1		LTB3		STRN		LElbow		RMMAL		LTH3		RASI		LTH2		LCAL		LASI		LLMAL		RLMAL		LTB2		LTB4		LMT5		LMMAL		LToe		LTB1
			X1	Y1	Z1	X2	Y2	Z2	X3	Y3	Z3	X4	Y4	Z4	X5	Y5	Z5	X6	Y6	Z6	X7	Y7	Z7	X8	Y8	Z8	X9	Y9	Z9	X10	Y10	Z10	X11	Y11	Z11	X12	Y12	Z12	X13	Y13	Z13	X14	Y14	Z14	X15	Y15	Z15	X16	Y16	Z16	X17	Y17	Z17	X18	Y18	Z18	X19	Y19	Z19	X20	Y20	Z20	X21	Y21	Z21	X22	Y22	Z22	X23	Y23	Z23	X24	Y24	Z24	X25	Y25	Z25	X26	Y26	Z26	X27	Y27	Z27	X28	Y28	Z28	X29	Y29	Z29	X30	Y30	Z30	X31	Y31	Z31	X32	Y32	Z32	X33	Y33	Z33	X34	Y34	Z34	X35	Y35	Z35	X36	Y36	Z36	X37	Y37	Z37	X38	Y38	Z38	X39	Y39	Z39	X40	Y40	Z40	X41	Y41	Z41	X42	Y42	Z42	X43	Y43	Z43	X44	Y44	Z44	X45	Y45	Z45	X46	Y46	Z46	X47	Y47	Z47	X48	Y48	Z48	X49	Y49	Z49	X50	Y50	Z50	X51	Y51	Z51	X52	Y52	Z52	X53	Y53	Z53	X54	Y54	Z54	X55	Y55	Z55	X56	Y56	Z56	X57	Y57	Z57	X58	Y58	Z58	X59	Y59	Z59

415	2.075	803.79	1479.2	-86.952	766.91	1341.7	-16.159	745.32	1068.5	-13.286	746.68	1240.3	118.2	734.66	879.13	-56.036	719.17	889.46	43.648	1031.2	765.81	274.88	741.5	966.62	-201.11	1137.3	48.42	-28.071	998.22	452.29	-126.34	1038.3	807.57	225.09	975.33	1468.5	-58.694	820.29	1109.8	-259.13	874.68	1133.9	221.93	922.54	869.6	266.74	892.21	1263.4	-10.794	815.24	712.13	-343.07	977.75	1476.3	18.767	840.23	943	190.97	778.66	759.03	-321.51	843.19	1276.7	-178	798.41	1484.9	36.431	843.67	1284.5	138.37	802.38	536.79	175.72	769.28	876.99	-304.81	975.73	774.72	247.94	815.21	629.59	195.69	889.85	626.5	173.01	750.55	315.39	85.353	678.81	258.44	79.943	476.31	191.42	67.138	576.96	27.232	33.95	614.79	191.29	69.351	798.33	437.34	168.59	561.58	67.245	29.302	536.87	67.993	85.417	846.5	743.76	-294.82	882.61	991.29	263.72	651.57	280.27	142.33	966.73	653.87	-158.06	829	715.76	217.81	934.55	738.63	-184.06	1059.7	164.36	-34.365	959.63	1163	-12.561	764.06	999.33	-271.45	542.15	161.89	24.651	995.95	566.22	-135.54	960.5	858.23	144.11	1019.1	685.74	-117.77	983.36	27.029	-40.09	776.76	850.92	-157.11	1026.5	61.184	-80.131	523.32	158.89	102.37	1023.8	250.08	-108.58	1044	254.7	-41.317	1115.7	28.68	-81.572	1042.9	67.904	-1.7136	1192.6	23.058	-36.927	1044.3	346.71	-44.563
416	2.08	810.52	1480.4	-88.039	773.47	1343	-17.083	751.74	1069.8	-13.858	753.21	1242	117.47	741.13	880.44	-56.097	725.71	890.04	43.665	1034.3	766	274.91	749.22	967.83	-201.48	1137.3	48.092	-27.956	1001.7	452.67	-126.67	1041.9	807.62	225.01	982.01	1469.7	-59.348	828	1111	-259.6	880.65	1135.5	221.22	926.62	870.82	266.44	898.75	1264.8	-11.383	823.33	712.96	-342.79	984.22	1477.6	18.098	845.28	944.96	190.2	786.84	760.03	-321.58	850.07	1278.1	-178.65	804.83	1486.2	35.311	850.21	1286.2	137.52	812.89	537.01	176.85	777.3	878.03	-305	979.01	775.41	247.95	824.42	630.13	196.06	899.13	627.85	173.54	762.31	315.62	87.649	689.67	259.87	81.751	486.13	196.73	66.751	581.6	28.346	35.844	624.58	193.74	70.797	809.95	437.57	170.11	568.47	69.759	30.596	542.87	71.324	86.192	854.33	744.71	-294.46	887.65	992.83	263.07	661.55	282.91	143.4	971.98	654.54	-158.47	837.01	716.61	217.59	940.45	739.57	-184.41	1060.6	164.16	-34.327	966.22	1164.3	-13.078	771.92	1000.4	-271.89	551.86	165.34	25.238	1000.5	566.69	-135.88	966.87	859.06	143.91	1024.4	685.99	-117.89	983.36	27.126	-40.158	785.47	851.39	-157.28	1026.8	61.215	-80.19	531.77	163.28	102.86	1025.6	250.13	-108.72	1045.6	254.62	-41.398	1115.7	28.662	-81.655	1042.9	67.87	-1.7136	1192.7	22.445	-36.65	1046.7	346.63	-44.706
417	2.085	817.24	1481.5	-89.08	780.01	1344.3	-17.948	758.15	1071.1	-14.421	759.69	1243.7	116.78	747.55	881.72	-56.183	732.2	890.63	43.614	1037.5	766.19	274.97	756.9	969.03	-201.85	1137.4	47.817	-27.842	1005	452.97	-127.01	1045.5	807.67	224.98	988.67	1471	-59.965	835.68	1112.1	-260.05	886.58	1137.1	220.56	930.66	872.03	266.16	905.27	1266.1	-11.918	831.59	713.85	-342.51	990.68	1478.9	17.468	850.28	946.89	189.46	795.15	761.04	-321.64	856.94	1279.5	-179.25	811.25	1487.5	34.233	856.7	1287.8	136.72	823.48	537.29	177.95	785.36	879.07	-305.2	982.25	776.1	247.99	833.66	630.71	196.4	908.44	629.28	174.06	774.27	315.95	89.858	700.8	261.35	83.471	496.27	201.72	66.372	587.13	29.577	37.967	634.71	196.17	72.148	821.68	437.86	171.55	576.08	72.308	31.995	549.62	74.731	87.036	862.3	745.72	-294.08	892.62	994.33	262.46	671.87	285.51	144.4	977.08	655.13	-158.89	845.01	717.49	217.34	946.23	740.42	-184.78	1061.4	163.97	-34.263	972.77	1165.7	-13.547	779.75	1001.5	-272.32	561.93	168.67	25.786	1004.8	567.06	-136.22	973.19	859.9	143.64	1029.6	686.13	-118.1	983.34	27.206	-40.203	794.67	851.84	-157.45	1027.1	61.249	-80.226	540.66	167.53	103.3	1027.4	250.16	-108.83	1047.1	254.52	-41.445	1115.7	28.684	-81.731	1043	67.833	-1.6919	1192.7	21.934	-36.388	1049	346.53	-44.805
418	2.09	823.95	1482.7	-90.074	786.52	1345.6	-18.757	764.55	1072.4	-14.972	766.13	1245.3	116.13	753.91	882.98	-56.296	738.64	891.24	43.495	1040.6	766.38	275.08	764.55	970.23	-202.22	1137.4	47.584	-27.724	1008.2	453.21	-127.33	1049	807.73	225.01	995.33	1472.2	-60.545	843.33	1113.2	-260.47	892.48	1138.7	219.94	934.66	873.2	265.92	911.75	1267.4	-12.399	839.99	714.78	-342.23	997.14	1480.2	16.879	855.23	948.78	188.77	803.58	762.06	-321.7	863.79	1280.8	-179.79	817.67	1488.9	33.203	863.13	1289.4	135.98	834.12	537.62	179.02	793.44	880.11	-305.39	985.46	776.79	248.06	842.91	631.33	196.72	917.75	630.78	174.57	786.41	316.39	91.948	712.19	262.87	85.078	506.71	206.36	65.989	593.64	30.908	40.303	645.18	198.58	73.392	833.5	438.22	172.9	584.46	74.857	33.495	557.15	78.163	87.95	870.38	746.8	-293.7	897.55	995.79	261.89	682.51	288.04	145.34	982.03	655.62	-159.32	852.98	718.4	217.08	951.88	741.18	-185.15	1062.2	163.77	-34.175	979.27	1167	-13.968	787.55	1002.6	-272.75	572.38	171.84	26.29	1008.9	567.32	-136.55	979.46	860.77	143.31	1034.7	686.15	-118.39	983.32	27.269	-40.226	804.32	852.27	-157.62	1027.4	61.282	-80.237	550	171.6	103.66	1029	250.18	-108.91	1048.5	254.41	-41.457	1115.7	28.736	-81.799	1043.1	67.791	-1.6461	1192.7	21.51	-36.138	1051.1	346.42	-44.859
